# xmcd
#
# Track frame offsets:
#	150
#	14580
#	28465
#	42122
#	59627
#	80225
#	93860
#	110042
#	124402
#	140547
#	157005
#	176985
#	189590
#
# Disc length: 2766 seconds
#
# Revision: 5
# Processed by: cddbd v1.5.2PL0 Copyright (c) Steve Scherf et al.
# Submitted via: EZCDAudioConverter 6.0.2.1
#
DISCID=c70acc0d
DTITLE=Alabama - Southern Star
DYEAR=1989
DGENRE=Country
TTITLE0=Song of the south
TTITLE1=Down on the river
TTITLE2=High cotton
TTITLE3="ole" baugh road
TTITLE4=The borderline
TTITLE5=I'm still dreamin'
TTITLE6=Pete's music city
TTITLE7=Southern star
TTITLE8=If I had you
TTITLE9=She can
TTITLE10=I showed her
TTITLE11=Barefootin'
TTITLE12=Dixie fire
EXTD=
EXTT0=
EXTT1=
EXTT2=
EXTT3=
EXTT4=
EXTT5=
EXTT6=
EXTT7=
EXTT8=
EXTT9=
EXTT10=
EXTT11=
EXTT12=
PLAYORDER=
